<mxfile host="Electron" agent="Mozilla/5.0 (Windows NT 10.0; Win64; x64) AppleWebKit/537.36 (KHTML, like Gecko) draw.io/26.0.4 Chrome/128.0.6613.186 Electron/32.2.5 Safari/537.36" version="26.0.4">
  <diagram name="Página-1" id="wyreVxZRAm5BuGtp74Eg">
    <mxGraphModel dx="1803" dy="727" grid="1" gridSize="10" guides="1" tooltips="1" connect="1" arrows="1" fold="1" page="1" pageScale="1" pageWidth="827" pageHeight="1169" math="0" shadow="0">
      <root>
        <mxCell id="0" />
        <mxCell id="1" parent="0" />
        <mxCell id="kAAS8EBLstFBCeWRnzaB-15" value="" style="edgeStyle=orthogonalEdgeStyle;rounded=0;orthogonalLoop=1;jettySize=auto;html=1;fontFamily=Helvetica;fontSize=12;fontColor=default;labelBackgroundColor=default;" parent="1" target="kAAS8EBLstFBCeWRnzaB-13" edge="1">
          <mxGeometry relative="1" as="geometry">
            <mxPoint x="462.9999999999998" y="310" as="sourcePoint" />
          </mxGeometry>
        </mxCell>
        <mxCell id="kAAS8EBLstFBCeWRnzaB-6" value="" style="rounded=1;whiteSpace=wrap;html=1;" parent="1" vertex="1">
          <mxGeometry x="200" y="240" width="480" height="70" as="geometry" />
        </mxCell>
        <mxCell id="kAAS8EBLstFBCeWRnzaB-8" value="" style="edgeStyle=orthogonalEdgeStyle;rounded=0;orthogonalLoop=1;jettySize=auto;html=1;entryX=0.5;entryY=0;entryDx=0;entryDy=0;" parent="1" source="kAAS8EBLstFBCeWRnzaB-1" target="kAAS8EBLstFBCeWRnzaB-18" edge="1">
          <mxGeometry relative="1" as="geometry" />
        </mxCell>
        <mxCell id="kAAS8EBLstFBCeWRnzaB-1" value="Pasos para un Desarrollo efectivo" style="rounded=1;whiteSpace=wrap;html=1;fontSize=20;" parent="1" vertex="1">
          <mxGeometry x="287" y="10" width="306" height="50" as="geometry" />
        </mxCell>
        <mxCell id="kAAS8EBLstFBCeWRnzaB-2" value="Descarga de los datos desde las fuentes&lt;div style=&quot;font-size: 14px;&quot;&gt;Pipelines de alimentacion&lt;/div&gt;&lt;div style=&quot;font-size: 14px;&quot;&gt;AWS, S3&lt;/div&gt;" style="rounded=1;whiteSpace=wrap;html=1;fontSize=14;" parent="1" vertex="1">
          <mxGeometry x="293" y="160" width="300" height="50" as="geometry" />
        </mxCell>
        <mxCell id="kAAS8EBLstFBCeWRnzaB-4" value="&lt;h1 style=&quot;margin-top: 0px;&quot;&gt;&lt;div style=&quot;color: #cccccc;background-color: #1f1f1f;font-family: Consolas, &#39;Courier New&#39;, monospace;font-weight: normal;font-size: 14px;line-height: 19px;white-space: pre;&quot;&gt;&lt;div&gt;&lt;span style=&quot;color: #9cdcfe;&quot;&gt;url_7&lt;/span&gt; &lt;span style=&quot;color: #d4d4d4;&quot;&gt;=&lt;/span&gt; &lt;span style=&quot;color: #ce9178;&quot;&gt;&quot;https://nequi-data.s3.us-east-1.amazonaws.com/sandbox_co/mscarmon/prueba_seleccion_ds/sample_data_0007_part_00.parquet&quot;&lt;/span&gt;&lt;/div&gt;&lt;br&gt;&lt;/div&gt;&lt;/h1&gt;" style="text;html=1;whiteSpace=wrap;overflow=hidden;rounded=0;" parent="1" vertex="1">
          <mxGeometry x="243" y="250" width="180" height="40" as="geometry" />
        </mxCell>
        <mxCell id="kAAS8EBLstFBCeWRnzaB-5" value="&lt;h1 style=&quot;margin-top: 0px;&quot;&gt;&lt;div style=&quot;color: #cccccc;background-color: #1f1f1f;font-family: Consolas, &#39;Courier New&#39;, monospace;font-weight: normal;font-size: 14px;line-height: 19px;white-space: pre;&quot;&gt;&lt;div&gt;&lt;span style=&quot;color: #9cdcfe;&quot;&gt;url_6&lt;/span&gt; &lt;span style=&quot;color: #d4d4d4;&quot;&gt;=&lt;/span&gt; &lt;span style=&quot;color: #ce9178;&quot;&gt;&quot;https://nequi-data.s3.us-east-1.amazonaws.com/sandbox_co/mscarmon/prueba_seleccion_ds/sample_data_0006_part_00.parquet&quot;&lt;/span&gt;&lt;/div&gt;&lt;br&gt;&lt;/div&gt;&lt;/h1&gt;" style="text;html=1;whiteSpace=wrap;overflow=hidden;rounded=0;" parent="1" vertex="1">
          <mxGeometry x="463" y="250" width="180" height="50" as="geometry" />
        </mxCell>
        <mxCell id="kAAS8EBLstFBCeWRnzaB-11" style="edgeStyle=orthogonalEdgeStyle;rounded=0;orthogonalLoop=1;jettySize=auto;html=1;entryX=0.442;entryY=0.111;entryDx=0;entryDy=0;entryPerimeter=0;" parent="1" source="kAAS8EBLstFBCeWRnzaB-2" edge="1">
          <mxGeometry relative="1" as="geometry">
            <mxPoint x="435.15999999999985" y="247.7700000000002" as="targetPoint" />
          </mxGeometry>
        </mxCell>
        <mxCell id="kAAS8EBLstFBCeWRnzaB-26" style="edgeStyle=orthogonalEdgeStyle;rounded=0;orthogonalLoop=1;jettySize=auto;html=1;fontFamily=Helvetica;fontSize=12;fontColor=default;labelBackgroundColor=default;" parent="1" source="kAAS8EBLstFBCeWRnzaB-13" target="kAAS8EBLstFBCeWRnzaB-25" edge="1">
          <mxGeometry relative="1" as="geometry" />
        </mxCell>
        <mxCell id="kAAS8EBLstFBCeWRnzaB-13" value="Esploracion de Data&lt;div&gt;EDA&lt;/div&gt;" style="image;aspect=fixed;html=1;points=[];align=center;fontSize=12;image=img/lib/azure2/databases/Azure_Data_Explorer_Clusters.svg;strokeColor=default;verticalAlign=top;fontFamily=Helvetica;fontColor=default;labelBackgroundColor=default;fillColor=default;" parent="1" vertex="1">
          <mxGeometry x="403" y="350" width="120" height="120" as="geometry" />
        </mxCell>
        <mxCell id="kAAS8EBLstFBCeWRnzaB-20" style="edgeStyle=orthogonalEdgeStyle;rounded=0;orthogonalLoop=1;jettySize=auto;html=1;entryX=0.5;entryY=0;entryDx=0;entryDy=0;fontFamily=Helvetica;fontSize=12;fontColor=default;labelBackgroundColor=default;" parent="1" source="kAAS8EBLstFBCeWRnzaB-18" target="kAAS8EBLstFBCeWRnzaB-2" edge="1">
          <mxGeometry relative="1" as="geometry" />
        </mxCell>
        <mxCell id="kAAS8EBLstFBCeWRnzaB-18" value="Entendimiento del problema" style="rounded=1;whiteSpace=wrap;html=1;strokeColor=default;align=center;verticalAlign=top;fontFamily=Helvetica;fontSize=16;fontColor=default;labelBackgroundColor=default;fillColor=default;" parent="1" vertex="1">
          <mxGeometry x="346.5" y="90" width="193" height="40" as="geometry" />
        </mxCell>
        <mxCell id="kAAS8EBLstFBCeWRnzaB-23" style="edgeStyle=orthogonalEdgeStyle;rounded=0;orthogonalLoop=1;jettySize=auto;html=1;entryX=0;entryY=0.5;entryDx=0;entryDy=0;fontFamily=Helvetica;fontSize=12;fontColor=default;labelBackgroundColor=default;" parent="1" source="kAAS8EBLstFBCeWRnzaB-21" target="kAAS8EBLstFBCeWRnzaB-6" edge="1">
          <mxGeometry relative="1" as="geometry" />
        </mxCell>
        <mxCell id="kAAS8EBLstFBCeWRnzaB-24" style="edgeStyle=orthogonalEdgeStyle;rounded=0;orthogonalLoop=1;jettySize=auto;html=1;entryX=0;entryY=0.5;entryDx=0;entryDy=0;fontFamily=Helvetica;fontSize=12;fontColor=default;labelBackgroundColor=default;" parent="1" source="kAAS8EBLstFBCeWRnzaB-21" target="kAAS8EBLstFBCeWRnzaB-2" edge="1">
          <mxGeometry relative="1" as="geometry" />
        </mxCell>
        <mxCell id="kAAS8EBLstFBCeWRnzaB-21" value="" style="sketch=0;outlineConnect=0;fontColor=#232F3E;gradientColor=none;fillColor=#8C4FFF;strokeColor=none;dashed=0;verticalLabelPosition=bottom;verticalAlign=top;align=center;html=1;fontSize=12;fontStyle=0;aspect=fixed;pointerEvents=1;shape=mxgraph.aws4.data_lake_resource_icon;fontFamily=Helvetica;labelBackgroundColor=default;" parent="1" vertex="1">
          <mxGeometry x="10" y="150" width="163" height="163" as="geometry" />
        </mxCell>
        <mxCell id="kAAS8EBLstFBCeWRnzaB-30" value="" style="edgeStyle=orthogonalEdgeStyle;rounded=0;orthogonalLoop=1;jettySize=auto;html=1;fontFamily=Helvetica;fontSize=12;fontColor=default;labelBackgroundColor=default;" parent="1" source="kAAS8EBLstFBCeWRnzaB-25" target="kAAS8EBLstFBCeWRnzaB-29" edge="1">
          <mxGeometry relative="1" as="geometry" />
        </mxCell>
        <mxCell id="kAAS8EBLstFBCeWRnzaB-25" value="&lt;font color=&quot;#ffffff&quot;&gt;&lt;span style=&quot;font-size: 16px; background-color: light-dark(rgb(18, 17, 17), rgb(237, 237, 237));&quot;&gt;Definicion y Diseño de la logica&lt;/span&gt;&lt;/font&gt;&lt;div&gt;&lt;font color=&quot;#ffffff&quot;&gt;&lt;span style=&quot;font-size: 16px; background-color: light-dark(rgb(18, 17, 17), rgb(237, 237, 237));&quot;&gt;de deteccion (features y Modelo)&lt;/span&gt;&lt;/font&gt;&lt;/div&gt;" style="sketch=0;outlineConnect=0;fontColor=#232F3E;gradientColor=none;fillColor=#01A88D;strokeColor=none;dashed=0;verticalLabelPosition=bottom;verticalAlign=top;align=center;html=1;fontSize=12;fontStyle=0;aspect=fixed;pointerEvents=1;shape=mxgraph.aws4.sagemaker_model;fontFamily=Helvetica;labelBackgroundColor=default;" parent="1" vertex="1">
          <mxGeometry x="660" y="420" width="78" height="78" as="geometry" />
        </mxCell>
        <mxCell id="f93Op1O5AVpk71X0k1n3-2" style="edgeStyle=orthogonalEdgeStyle;rounded=0;orthogonalLoop=1;jettySize=auto;html=1;" edge="1" parent="1" source="kAAS8EBLstFBCeWRnzaB-29" target="f93Op1O5AVpk71X0k1n3-1">
          <mxGeometry relative="1" as="geometry" />
        </mxCell>
        <mxCell id="kAAS8EBLstFBCeWRnzaB-29" value="&lt;font style=&quot;font-size: 16px; color: rgb(0, 0, 0);&quot;&gt;Modelos de ML&lt;/font&gt;" style="sketch=0;outlineConnect=0;fontColor=#232F3E;gradientColor=none;fillColor=#7AA116;strokeColor=none;dashed=0;verticalLabelPosition=bottom;verticalAlign=top;align=center;html=1;fontSize=12;fontStyle=0;aspect=fixed;pointerEvents=1;shape=mxgraph.aws4.iot_sitewise_asset_model;fontFamily=Helvetica;labelBackgroundColor=default;" parent="1" vertex="1">
          <mxGeometry x="660" y="610" width="80" height="80" as="geometry" />
        </mxCell>
        <mxCell id="f93Op1O5AVpk71X0k1n3-1" value="&lt;h3&gt;Cargamos resultados en Cloud services,&lt;/h3&gt;&lt;div&gt;AWS-S3, AZURE-Countain&lt;/div&gt;" style="verticalLabelPosition=bottom;html=1;verticalAlign=top;align=center;strokeColor=none;fillColor=#00BEF2;shape=mxgraph.azure.cloud_service;" vertex="1" parent="1">
          <mxGeometry x="346.5" y="600" width="199.5" height="80" as="geometry" />
        </mxCell>
      </root>
    </mxGraphModel>
  </diagram>
</mxfile>
